<mxfile host="app.diagrams.net" modified="2022-12-26T19:52:10.913Z" agent="5.0 (Windows NT 10.0; Win64; x64) AppleWebKit/537.36 (KHTML, like Gecko) Chrome/108.0.0.0 Safari/537.36 Edg/108.0.1462.54" etag="LcfZdc2WmnoaeZJV7wgz" version="20.7.4" type="github">
  <diagram id="msj6TRXzUkbj3XtdeSZy" name="Page-1">
    <mxGraphModel dx="1434" dy="756" grid="1" gridSize="10" guides="1" tooltips="1" connect="1" arrows="1" fold="1" page="1" pageScale="1" pageWidth="850" pageHeight="1100" math="0" shadow="0">
      <root>
        <mxCell id="0" />
        <mxCell id="1" parent="0" />
        <mxCell id="vavf1w2fCHCmIrN-eqjR-23" value="&lt;font style=&quot;font-size: 16px;&quot;&gt;shvulkan graphics example&lt;/font&gt;" style="swimlane;whiteSpace=wrap;html=1;fontSize=12;" vertex="1" parent="1">
          <mxGeometry width="850" height="800" as="geometry" />
        </mxCell>
        <mxCell id="jcEzH6TltJ--Tu3BSwTK-10" value="" style="endArrow=classic;html=1;rounded=0;exitX=0.5;exitY=1;exitDx=0;exitDy=0;" parent="vavf1w2fCHCmIrN-eqjR-23" edge="1">
          <mxGeometry relative="1" as="geometry">
            <mxPoint x="120" y="130" as="sourcePoint" />
            <mxPoint x="180" y="210" as="targetPoint" />
            <Array as="points">
              <mxPoint x="120" y="150" />
              <mxPoint x="180" y="150" />
            </Array>
          </mxGeometry>
        </mxCell>
        <mxCell id="jcEzH6TltJ--Tu3BSwTK-11" value="copied to" style="edgeLabel;resizable=0;html=1;align=center;verticalAlign=middle;" parent="jcEzH6TltJ--Tu3BSwTK-10" connectable="0" vertex="1">
          <mxGeometry relative="1" as="geometry">
            <mxPoint x="10" y="20" as="offset" />
          </mxGeometry>
        </mxCell>
        <mxCell id="jcEzH6TltJ--Tu3BSwTK-15" value="" style="endArrow=none;html=1;rounded=0;entryX=0.5;entryY=1;entryDx=0;entryDy=0;" parent="vavf1w2fCHCmIrN-eqjR-23" edge="1">
          <mxGeometry width="50" height="50" relative="1" as="geometry">
            <mxPoint x="180" y="150" as="sourcePoint" />
            <mxPoint x="240" y="130" as="targetPoint" />
            <Array as="points">
              <mxPoint x="240" y="150" />
            </Array>
          </mxGeometry>
        </mxCell>
        <mxCell id="jcEzH6TltJ--Tu3BSwTK-20" value="&lt;font style=&quot;font-size: 9px;&quot;&gt;device local vertex buffer &lt;br&gt;(0x000)&lt;/font&gt;" style="swimlane;whiteSpace=wrap;html=1;startSize=30;" parent="vavf1w2fCHCmIrN-eqjR-23" vertex="1">
          <mxGeometry x="60" y="210" width="240" height="30" as="geometry">
            <mxRectangle x="40" y="200" width="120" height="30" as="alternateBounds" />
          </mxGeometry>
        </mxCell>
        <mxCell id="jcEzH6TltJ--Tu3BSwTK-43" value="" style="endArrow=classic;html=1;rounded=0;exitX=0.5;exitY=1;exitDx=0;exitDy=0;entryX=0.5;entryY=0;entryDx=0;entryDy=0;" parent="vavf1w2fCHCmIrN-eqjR-23" target="jcEzH6TltJ--Tu3BSwTK-46" edge="1">
          <mxGeometry relative="1" as="geometry">
            <mxPoint x="360" y="130" as="sourcePoint" />
            <mxPoint x="360" y="200" as="targetPoint" />
            <Array as="points">
              <mxPoint x="360" y="170" />
            </Array>
          </mxGeometry>
        </mxCell>
        <mxCell id="jcEzH6TltJ--Tu3BSwTK-53" value="copied to" style="edgeLabel;html=1;align=center;verticalAlign=middle;resizable=0;points=[];" parent="jcEzH6TltJ--Tu3BSwTK-43" vertex="1" connectable="0">
          <mxGeometry x="0.1005" y="-1" relative="1" as="geometry">
            <mxPoint x="1" y="-4" as="offset" />
          </mxGeometry>
        </mxCell>
        <mxCell id="jcEzH6TltJ--Tu3BSwTK-46" value="&lt;font style=&quot;font-size: 9px;&quot;&gt;device local index buffer (0x001)&lt;/font&gt;" style="swimlane;whiteSpace=wrap;html=1;startSize=30;" parent="vavf1w2fCHCmIrN-eqjR-23" vertex="1">
          <mxGeometry x="300" y="210" width="120" height="30" as="geometry">
            <mxRectangle x="40" y="200" width="120" height="30" as="alternateBounds" />
          </mxGeometry>
        </mxCell>
        <mxCell id="jcEzH6TltJ--Tu3BSwTK-54" value="&lt;font style=&quot;font-size: 9px;&quot;&gt;device local descriptor buffer&lt;br&gt;(0x002)&lt;br&gt;&lt;/font&gt;" style="swimlane;whiteSpace=wrap;html=1;startSize=30;" parent="vavf1w2fCHCmIrN-eqjR-23" vertex="1">
          <mxGeometry x="420" y="210" width="360" height="30" as="geometry">
            <mxRectangle x="40" y="200" width="120" height="30" as="alternateBounds" />
          </mxGeometry>
        </mxCell>
        <mxCell id="jcEzH6TltJ--Tu3BSwTK-56" value="" style="endArrow=classic;html=1;rounded=0;exitX=0.5;exitY=1;exitDx=0;exitDy=0;" parent="vavf1w2fCHCmIrN-eqjR-23" edge="1">
          <mxGeometry relative="1" as="geometry">
            <mxPoint x="480" y="130" as="sourcePoint" />
            <mxPoint x="600" y="210" as="targetPoint" />
            <Array as="points">
              <mxPoint x="480" y="150" />
              <mxPoint x="600" y="150" />
            </Array>
          </mxGeometry>
        </mxCell>
        <mxCell id="jcEzH6TltJ--Tu3BSwTK-57" value="copied to" style="edgeLabel;resizable=0;html=1;align=center;verticalAlign=middle;" parent="jcEzH6TltJ--Tu3BSwTK-56" connectable="0" vertex="1">
          <mxGeometry relative="1" as="geometry">
            <mxPoint x="40" y="20" as="offset" />
          </mxGeometry>
        </mxCell>
        <mxCell id="jcEzH6TltJ--Tu3BSwTK-58" value="" style="endArrow=none;html=1;rounded=0;entryX=0.5;entryY=1;entryDx=0;entryDy=0;" parent="vavf1w2fCHCmIrN-eqjR-23" edge="1">
          <mxGeometry x="0.5" y="-370" width="50" height="50" relative="1" as="geometry">
            <mxPoint x="600" y="150" as="sourcePoint" />
            <mxPoint x="720" y="130" as="targetPoint" />
            <Array as="points">
              <mxPoint x="720" y="150" />
            </Array>
            <mxPoint as="offset" />
          </mxGeometry>
        </mxCell>
        <mxCell id="jcEzH6TltJ--Tu3BSwTK-59" value="" style="endArrow=none;html=1;rounded=0;shadow=0;jumpSize=6;" parent="vavf1w2fCHCmIrN-eqjR-23" edge="1">
          <mxGeometry width="50" height="50" relative="1" as="geometry">
            <mxPoint x="600" y="160" as="sourcePoint" />
            <mxPoint x="600" y="130" as="targetPoint" />
          </mxGeometry>
        </mxCell>
        <mxCell id="jcEzH6TltJ--Tu3BSwTK-64" value="&lt;b&gt;pipeline&lt;/b&gt;" style="whiteSpace=wrap;html=1;align=center;verticalAlign=middle;treeFolding=1;treeMoving=1;newEdgeStyle={&quot;edgeStyle&quot;:&quot;elbowEdgeStyle&quot;,&quot;startArrow&quot;:&quot;none&quot;,&quot;endArrow&quot;:&quot;none&quot;};fontSize=9;" parent="vavf1w2fCHCmIrN-eqjR-23" vertex="1" collapsed="1">
          <mxGeometry x="60" y="260" width="120" height="20" as="geometry" />
        </mxCell>
        <mxCell id="jcEzH6TltJ--Tu3BSwTK-71" value="" style="endArrow=none;html=1;rounded=0;shadow=0;fontSize=9;sourcePerimeterSpacing=100;jumpSize=6;" parent="vavf1w2fCHCmIrN-eqjR-23" edge="1">
          <mxGeometry width="50" height="50" relative="1" as="geometry">
            <mxPoint x="120" y="310" as="sourcePoint" />
            <mxPoint x="190" y="310" as="targetPoint" />
          </mxGeometry>
        </mxCell>
        <mxCell id="jcEzH6TltJ--Tu3BSwTK-72" value="application loop" style="swimlane;whiteSpace=wrap;html=1;fontSize=9;" parent="vavf1w2fCHCmIrN-eqjR-23" vertex="1">
          <mxGeometry x="460" y="257.5" width="320" height="482.5" as="geometry" />
        </mxCell>
        <mxCell id="jcEzH6TltJ--Tu3BSwTK-80" value="descriptor set 0 (point light info)" style="swimlane;whiteSpace=wrap;html=1;fontSize=9;" parent="vavf1w2fCHCmIrN-eqjR-23" vertex="1">
          <mxGeometry x="190" y="300" width="240" height="210" as="geometry" />
        </mxCell>
        <mxCell id="jcEzH6TltJ--Tu3BSwTK-81" value="buffer info" style="swimlane;whiteSpace=wrap;html=1;fontSize=9;" parent="jcEzH6TltJ--Tu3BSwTK-80" vertex="1">
          <mxGeometry x="20" y="40" width="200" height="70" as="geometry" />
        </mxCell>
        <mxCell id="jcEzH6TltJ--Tu3BSwTK-82" value="buffer:&amp;nbsp; &amp;nbsp;&amp;nbsp;&lt;b&gt;0x000&lt;/b&gt;&lt;br&gt;offset:&amp;nbsp; &amp;nbsp;&amp;nbsp;&lt;b&gt;0&lt;br&gt;&lt;/b&gt;range:&amp;nbsp; &amp;nbsp; &lt;b&gt;32&lt;/b&gt;" style="text;html=1;align=left;verticalAlign=middle;resizable=0;points=[];autosize=1;strokeColor=none;fillColor=none;fontSize=9;" parent="jcEzH6TltJ--Tu3BSwTK-81" vertex="1">
          <mxGeometry x="30" y="20" width="80" height="50" as="geometry" />
        </mxCell>
        <mxCell id="jcEzH6TltJ--Tu3BSwTK-91" value="info" style="swimlane;whiteSpace=wrap;html=1;fontSize=9;" parent="jcEzH6TltJ--Tu3BSwTK-80" vertex="1">
          <mxGeometry x="20" y="120" width="200" height="70" as="geometry" />
        </mxCell>
        <mxCell id="jcEzH6TltJ--Tu3BSwTK-92" value="usage:&amp;nbsp; &amp;nbsp;&amp;nbsp;&lt;b&gt;UNIFORM&lt;/b&gt;&lt;br&gt;stage:&amp;nbsp; &amp;nbsp; &amp;nbsp;&lt;b&gt;FRAGMENT&lt;/b&gt;&amp;nbsp;&lt;b&gt;SHADER&lt;/b&gt;&lt;br&gt;binding:&amp;nbsp; &lt;b&gt;0&lt;/b&gt;" style="text;html=1;align=left;verticalAlign=middle;resizable=0;points=[];autosize=1;strokeColor=none;fillColor=none;fontSize=9;" parent="jcEzH6TltJ--Tu3BSwTK-91" vertex="1">
          <mxGeometry x="30" y="20" width="150" height="50" as="geometry" />
        </mxCell>
        <mxCell id="jcEzH6TltJ--Tu3BSwTK-93" value="descriptor set 1 (model matrix info)" style="swimlane;whiteSpace=wrap;html=1;fontSize=9;" parent="vavf1w2fCHCmIrN-eqjR-23" vertex="1">
          <mxGeometry x="190" y="530" width="240" height="210" as="geometry" />
        </mxCell>
        <mxCell id="jcEzH6TltJ--Tu3BSwTK-94" value="buffer info" style="swimlane;whiteSpace=wrap;html=1;fontSize=9;" parent="jcEzH6TltJ--Tu3BSwTK-93" vertex="1">
          <mxGeometry x="20" y="40" width="200" height="70" as="geometry" />
        </mxCell>
        <mxCell id="jcEzH6TltJ--Tu3BSwTK-95" value="buffer:&amp;nbsp; &amp;nbsp;&amp;nbsp;&lt;b&gt;0x000&lt;/b&gt;&lt;br&gt;offset:&amp;nbsp; &amp;nbsp; &lt;b&gt;32&lt;br&gt;&lt;/b&gt;range:&amp;nbsp; &amp;nbsp; &lt;b&gt;64&lt;/b&gt;" style="text;html=1;align=left;verticalAlign=middle;resizable=0;points=[];autosize=1;strokeColor=none;fillColor=none;fontSize=9;" parent="jcEzH6TltJ--Tu3BSwTK-94" vertex="1">
          <mxGeometry x="30" y="20" width="80" height="50" as="geometry" />
        </mxCell>
        <mxCell id="jcEzH6TltJ--Tu3BSwTK-96" value="info" style="swimlane;whiteSpace=wrap;html=1;fontSize=9;" parent="jcEzH6TltJ--Tu3BSwTK-93" vertex="1">
          <mxGeometry x="20" y="120" width="200" height="70" as="geometry" />
        </mxCell>
        <mxCell id="jcEzH6TltJ--Tu3BSwTK-97" value="usage:&amp;nbsp; &amp;nbsp;&amp;nbsp;&lt;b&gt;DYNAMIC UNIFORM&lt;/b&gt;&lt;br&gt;stage:&amp;nbsp; &amp;nbsp; &amp;nbsp;&lt;b&gt;VERTEX SHADER&lt;/b&gt;&lt;br&gt;binding:&amp;nbsp; &lt;b&gt;1&lt;/b&gt;" style="text;html=1;align=left;verticalAlign=middle;resizable=0;points=[];autosize=1;strokeColor=none;fillColor=none;fontSize=9;" parent="jcEzH6TltJ--Tu3BSwTK-96" vertex="1">
          <mxGeometry x="30" y="20" width="150" height="50" as="geometry" />
        </mxCell>
        <mxCell id="jcEzH6TltJ--Tu3BSwTK-98" value="" style="endArrow=none;html=1;rounded=0;shadow=0;fontSize=9;sourcePerimeterSpacing=100;jumpSize=6;entryX=0;entryY=0.048;entryDx=0;entryDy=0;entryPerimeter=0;exitX=0.5;exitY=1;exitDx=0;exitDy=0;" parent="vavf1w2fCHCmIrN-eqjR-23" source="jcEzH6TltJ--Tu3BSwTK-64" target="jcEzH6TltJ--Tu3BSwTK-93" edge="1">
          <mxGeometry width="50" height="50" relative="1" as="geometry">
            <mxPoint x="130" y="500" as="sourcePoint" />
            <mxPoint x="160" y="540" as="targetPoint" />
            <Array as="points">
              <mxPoint x="120" y="540" />
            </Array>
          </mxGeometry>
        </mxCell>
        <mxCell id="vavf1w2fCHCmIrN-eqjR-1" value="&lt;b&gt;quad vertices&lt;/b&gt;" style="rounded=0;whiteSpace=wrap;html=1;labelBackgroundColor=none;" vertex="1" parent="vavf1w2fCHCmIrN-eqjR-23">
          <mxGeometry x="60" y="110" width="120" height="20" as="geometry" />
        </mxCell>
        <mxCell id="vavf1w2fCHCmIrN-eqjR-2" value="&lt;b&gt;triangle vertices&lt;/b&gt;" style="rounded=0;whiteSpace=wrap;html=1;labelBackgroundColor=none;" vertex="1" parent="vavf1w2fCHCmIrN-eqjR-23">
          <mxGeometry x="180" y="110" width="120" height="20" as="geometry" />
        </mxCell>
        <mxCell id="vavf1w2fCHCmIrN-eqjR-3" value="&lt;b&gt;quad indices&lt;/b&gt;" style="rounded=0;whiteSpace=wrap;html=1;labelBackgroundColor=none;" vertex="1" parent="vavf1w2fCHCmIrN-eqjR-23">
          <mxGeometry x="300" y="110" width="120" height="20" as="geometry" />
        </mxCell>
        <mxCell id="vavf1w2fCHCmIrN-eqjR-4" value="&lt;b&gt;light data&lt;/b&gt;" style="rounded=0;whiteSpace=wrap;html=1;labelBackgroundColor=none;" vertex="1" parent="vavf1w2fCHCmIrN-eqjR-23">
          <mxGeometry x="420" y="110" width="120" height="20" as="geometry" />
        </mxCell>
        <mxCell id="vavf1w2fCHCmIrN-eqjR-5" value="&lt;b&gt;model 0&lt;/b&gt;" style="rounded=0;whiteSpace=wrap;html=1;labelBackgroundColor=none;" vertex="1" parent="vavf1w2fCHCmIrN-eqjR-23">
          <mxGeometry x="540" y="110" width="120" height="20" as="geometry" />
        </mxCell>
        <mxCell id="vavf1w2fCHCmIrN-eqjR-6" value="&lt;b&gt;model 1&lt;/b&gt;" style="rounded=0;whiteSpace=wrap;html=1;labelBackgroundColor=none;" vertex="1" parent="vavf1w2fCHCmIrN-eqjR-23">
          <mxGeometry x="660" y="110" width="120" height="20" as="geometry" />
        </mxCell>
        <mxCell id="vavf1w2fCHCmIrN-eqjR-7" value="" style="endArrow=classic;html=1;rounded=0;jumpSize=6;exitX=0;exitY=0;exitDx=0;exitDy=0;shadow=0;entryX=0.5;entryY=1;entryDx=0;entryDy=0;" edge="1" parent="vavf1w2fCHCmIrN-eqjR-23" source="vavf1w2fCHCmIrN-eqjR-1">
          <mxGeometry width="50" height="50" relative="1" as="geometry">
            <mxPoint x="40" y="99" as="sourcePoint" />
            <mxPoint x="185" y="110" as="targetPoint" />
          </mxGeometry>
        </mxCell>
        <mxCell id="vavf1w2fCHCmIrN-eqjR-8" value="0 B" style="text;html=1;strokeColor=none;fillColor=none;align=center;verticalAlign=middle;whiteSpace=wrap;rounded=0;" vertex="1" parent="vavf1w2fCHCmIrN-eqjR-23">
          <mxGeometry x="60" y="92.5" width="30" height="15" as="geometry" />
        </mxCell>
        <mxCell id="vavf1w2fCHCmIrN-eqjR-9" value="128 B" style="text;html=1;strokeColor=none;fillColor=none;align=center;verticalAlign=middle;whiteSpace=wrap;rounded=0;" vertex="1" parent="vavf1w2fCHCmIrN-eqjR-23">
          <mxGeometry x="160" y="90" width="50" height="17.5" as="geometry" />
        </mxCell>
        <mxCell id="vavf1w2fCHCmIrN-eqjR-10" value="224 B" style="text;html=1;strokeColor=none;fillColor=none;align=center;verticalAlign=middle;whiteSpace=wrap;rounded=0;" vertex="1" parent="vavf1w2fCHCmIrN-eqjR-23">
          <mxGeometry x="280" y="90" width="50" height="17.5" as="geometry" />
        </mxCell>
        <mxCell id="vavf1w2fCHCmIrN-eqjR-11" value="280 B" style="text;html=1;strokeColor=none;fillColor=none;align=center;verticalAlign=middle;whiteSpace=wrap;rounded=0;" vertex="1" parent="vavf1w2fCHCmIrN-eqjR-23">
          <mxGeometry x="520" y="90" width="50" height="17.5" as="geometry" />
        </mxCell>
        <mxCell id="vavf1w2fCHCmIrN-eqjR-12" value="344 B" style="text;html=1;strokeColor=none;fillColor=none;align=center;verticalAlign=middle;whiteSpace=wrap;rounded=0;" vertex="1" parent="vavf1w2fCHCmIrN-eqjR-23">
          <mxGeometry x="640" y="90" width="50" height="17.5" as="geometry" />
        </mxCell>
        <mxCell id="vavf1w2fCHCmIrN-eqjR-13" value="408 B" style="text;html=1;strokeColor=none;fillColor=none;align=center;verticalAlign=middle;whiteSpace=wrap;rounded=0;" vertex="1" parent="vavf1w2fCHCmIrN-eqjR-23">
          <mxGeometry x="740" y="90" width="50" height="17.5" as="geometry" />
        </mxCell>
        <mxCell id="vavf1w2fCHCmIrN-eqjR-14" value="248 B" style="text;html=1;strokeColor=none;fillColor=none;align=center;verticalAlign=middle;whiteSpace=wrap;rounded=0;" vertex="1" parent="vavf1w2fCHCmIrN-eqjR-23">
          <mxGeometry x="395" y="90" width="50" height="17.5" as="geometry" />
        </mxCell>
        <mxCell id="vavf1w2fCHCmIrN-eqjR-15" value="" style="edgeStyle=none;rounded=0;jumpSize=6;orthogonalLoop=1;jettySize=auto;html=1;shadow=0;sourcePerimeterSpacing=100;" edge="1" parent="vavf1w2fCHCmIrN-eqjR-23">
          <mxGeometry relative="1" as="geometry">
            <mxPoint x="548.8888888888889" y="110" as="sourcePoint" />
            <mxPoint x="548.8888888888889" y="110" as="targetPoint" />
          </mxGeometry>
        </mxCell>
        <mxCell id="vavf1w2fCHCmIrN-eqjR-16" value="&lt;font style=&quot;font-size: 12px;&quot;&gt;host visible staging buffer&lt;/font&gt;" style="swimlane;whiteSpace=wrap;html=1;startSize=30;" vertex="1" parent="vavf1w2fCHCmIrN-eqjR-23">
          <mxGeometry x="60" y="60" width="720" height="30" as="geometry">
            <mxRectangle x="40" y="200" width="120" height="30" as="alternateBounds" />
          </mxGeometry>
        </mxCell>
        <mxCell id="vavf1w2fCHCmIrN-eqjR-18" value="" style="endArrow=classic;html=1;rounded=0;shadow=0;fontSize=12;sourcePerimeterSpacing=100;jumpSize=6;exitX=0;exitY=0;exitDx=0;exitDy=0;entryX=0.5;entryY=1;entryDx=0;entryDy=0;" edge="1" parent="vavf1w2fCHCmIrN-eqjR-23" source="vavf1w2fCHCmIrN-eqjR-2">
          <mxGeometry width="50" height="50" relative="1" as="geometry">
            <mxPoint x="120" y="192.5" as="sourcePoint" />
            <mxPoint x="305" y="110" as="targetPoint" />
          </mxGeometry>
        </mxCell>
        <mxCell id="vavf1w2fCHCmIrN-eqjR-19" value="" style="endArrow=classic;html=1;rounded=0;shadow=0;fontSize=12;sourcePerimeterSpacing=100;jumpSize=6;exitX=0;exitY=0;exitDx=0;exitDy=0;entryX=0.5;entryY=1;entryDx=0;entryDy=0;" edge="1" parent="vavf1w2fCHCmIrN-eqjR-23">
          <mxGeometry width="50" height="50" relative="1" as="geometry">
            <mxPoint x="300.0000000000001" y="109.6" as="sourcePoint" />
            <mxPoint x="425" y="109.6" as="targetPoint" />
          </mxGeometry>
        </mxCell>
        <mxCell id="vavf1w2fCHCmIrN-eqjR-20" value="" style="endArrow=classic;html=1;rounded=0;shadow=0;fontSize=12;sourcePerimeterSpacing=100;jumpSize=6;exitX=0;exitY=0;exitDx=0;exitDy=0;entryX=0.5;entryY=1;entryDx=0;entryDy=0;" edge="1" parent="vavf1w2fCHCmIrN-eqjR-23">
          <mxGeometry width="50" height="50" relative="1" as="geometry">
            <mxPoint x="420.0000000000001" y="109.6" as="sourcePoint" />
            <mxPoint x="545" y="109.6" as="targetPoint" />
          </mxGeometry>
        </mxCell>
        <mxCell id="vavf1w2fCHCmIrN-eqjR-21" value="" style="endArrow=classic;html=1;rounded=0;shadow=0;fontSize=12;sourcePerimeterSpacing=100;jumpSize=6;exitX=0;exitY=0;exitDx=0;exitDy=0;entryX=0.5;entryY=1;entryDx=0;entryDy=0;" edge="1" parent="vavf1w2fCHCmIrN-eqjR-23">
          <mxGeometry width="50" height="50" relative="1" as="geometry">
            <mxPoint x="540.0000000000001" y="110" as="sourcePoint" />
            <mxPoint x="665" y="110" as="targetPoint" />
          </mxGeometry>
        </mxCell>
        <mxCell id="vavf1w2fCHCmIrN-eqjR-22" value="" style="endArrow=classic;html=1;rounded=0;shadow=0;fontSize=12;sourcePerimeterSpacing=100;jumpSize=6;exitX=0;exitY=0;exitDx=0;exitDy=0;entryX=0.5;entryY=1;entryDx=0;entryDy=0;" edge="1" parent="vavf1w2fCHCmIrN-eqjR-23">
          <mxGeometry width="50" height="50" relative="1" as="geometry">
            <mxPoint x="657.5000000000001" y="109.6" as="sourcePoint" />
            <mxPoint x="782.5" y="109.6" as="targetPoint" />
          </mxGeometry>
        </mxCell>
      </root>
    </mxGraphModel>
  </diagram>
</mxfile>
